<svg width="20" height="20" viewBox="0 0 20 20" fill="none" xmlns="http://www.w3.org/2000/svg">
<path d="M18 1H2C1.5 1 1 1.4 1 2V4.4C1 5 1.5 5.4 2 5.4H18C18.6 5.4 19 4.9 19 4.4V2C19 1.4 18.5 1 18 1ZM17.6 4.3H2.5C2.3 4.3 2.1 4.1 2.1 3.9V2.5C2.1 2.3 2.3 2.1 2.5 2.1H17.6C17.8 2.1 18 2.3 18 2.5V4C18 4.1 17.8 4.3 17.6 4.3Z" fill="#999999"/>
<path d="M17.9002 6.3999H2.3002C1.7002 6.3999 1.2002 6.8999 1.2002 7.4999V17.8999C1.2002 18.4999 1.7002 18.9999 2.3002 18.9999H17.9002C18.5002 18.9999 19.0002 18.4999 19.0002 17.8999V7.4999C19.0002 6.8999 18.5002 6.3999 17.9002 6.3999ZM13.9002 11.0999L11.7002 13.8999C11.7002 13.9999 11.6002 13.9999 11.5002 13.9999C11.4002 13.9999 11.3002 13.9999 11.3002 13.8999L10.9002 13.5999L8.9002 11.9999L7.2002 14.0999C7.1002 14.1999 6.9002 14.1999 6.8002 14.0999L6.3002 13.6999C6.2002 13.6999 6.2002 13.5999 6.2002 13.4999C6.2002 13.3999 6.2002 13.2999 6.3002 13.2999L8.5002 10.4999C8.6002 10.3999 8.6002 10.3999 8.7002 10.3999C8.7002 10.3999 8.8002 10.3999 8.8002 10.4999L9.1002 10.7999L11.2002 12.3999L13.0002 10.3999C13.0002 10.2999 13.1002 10.2999 13.2002 10.2999C13.3002 10.2999 13.4002 10.2999 13.4002 10.3999L13.8002 10.7999C13.9002 10.7999 13.9002 10.8999 13.9002 10.9999C14.0002 10.8999 14.0002 10.9999 13.9002 11.0999Z" fill="#999999"/>
</svg>
