<svg width="20" height="20" viewBox="0 0 20 20" fill="none" xmlns="http://www.w3.org/2000/svg">
<path d="M17.6991 9.08008C19.035 7.68353 19.3213 5.5887 18.6533 3.89289L16.2677 6.38673C15.5998 7.085 14.5501 6.98525 13.8821 6.28697C13.2142 5.5887 13.2142 4.49141 13.7867 3.79313L16.2677 1.39905C14.6455 0.700772 12.6416 1.00003 11.3057 2.39658C9.87437 3.79313 9.5881 5.78821 10.2561 7.58377L8.63386 9.27958L4.43524 4.89042L4.72151 4.19215L2.43135 2.59609L1 4.09239L2.52677 6.48648L3.19474 6.08747L7.39336 10.4766L2.52677 15.5641C2.2405 15.8633 2.2405 16.4618 2.52677 16.7611L4.05355 18.3572C4.33981 18.6564 4.91235 18.6564 5.19862 18.3572L10.0652 13.2697L10.7332 13.968L10.5423 14.2673C10.2561 14.5665 10.1606 14.9655 10.4469 15.2648L13.7867 18.7562C14.073 19.0554 14.5501 19.1552 14.8364 18.8559L16.3631 17.2599C16.6494 16.9606 16.6494 16.3621 16.3631 16.0628L13.0233 12.5715C12.7371 12.2722 12.3554 12.3719 12.0691 12.6712L11.9737 12.771L11.3057 12.0727L13.0233 10.2771C14.6455 10.7759 16.4586 10.3769 17.6991 9.08008ZM5.48489 16.6613C5.1032 17.0604 4.62608 17.0604 4.24439 16.6613C3.8627 16.2623 3.8627 15.7636 4.24439 15.3646C4.62608 14.9655 5.1032 14.9655 5.48489 15.3646C5.77116 15.7636 5.77116 16.3621 5.48489 16.6613Z" fill="#999999"/>
</svg>
