<svg width="20" height="20" viewBox="0 0 20 20" fill="none" xmlns="http://www.w3.org/2000/svg">
<path d="M17.2 2.8C14.1 2.5 11.8 1.6 10.3 0.3L9.9 0L9.5 0.3C7.2 2 4.9 2.8 2.7 2.8H2V12C2 14.8 4.5 17.4 9.6 19.8L9.9 20L10.2 19.9C15.3 17.7 17.8 15.1 17.8 12.1V2.9L17.2 2.8ZM14 8.6L11.7 11.6C11.7 11.7 11.6 11.7 11.5 11.7C11.4 11.7 11.3 11.7 11.3 11.6L10.9 11.3L8.6 9.6L6.8 11.9C6.7 12 6.5 12 6.4 11.9L5.9 11.5C5.8 11.5 5.8 11.4 5.8 11.3C5.8 11.2 5.8 11.1 5.9 11.1L8.3 8.1C8.2 8.1 8.3 8 8.4 8H8.5C8.6 8 8.6 8 8.6 8.1L9 8.4L11.3 10.2L13 7.8C13 7.7 13.1 7.7 13.2 7.7C13.3 7.7 13.4 7.7 13.4 7.8L13.9 8.2C14 8.2 14 8.3 14 8.4C14 8.4 14 8.5 14 8.6Z" fill="#999999"/>
</svg>
