<svg width="20" height="20" viewBox="0 0 20 20" fill="none" xmlns="http://www.w3.org/2000/svg">
<path d="M17.2 2.8C14.1 2.5 11.8 1.6 10.3 0.3L9.9 0L9.5 0.3C7.2 2 4.9 2.8 2.7 2.8H2V12C2 14.8 4.5 17.4 9.6 19.8L9.9 20L10.2 19.9C15.3 17.7 17.8 15.1 17.8 12.1V2.9L17.2 2.8ZM5.7 10.3H11.9C12.2 10.3 12.4 10.5 12.4 10.8C12.4 11.1 12.2 11.3 11.9 11.3H5.7C5.4 11.3 5.2 11.1 5.2 10.8C5.2 10.5 5.5 10.3 5.7 10.3ZM5.3 8.3C5.3 8 5.5 7.8 5.8 7.8H10.6C10.8 7.8 11 8 11 8.3C11 8.6 10.8 8.8 10.5 8.8H5.7C5.5 8.8 5.3 8.6 5.3 8.3ZM13.7 13.7H5.8C5.5 13.7 5.3 13.5 5.3 13.2C5.3 12.9 5.5 12.7 5.8 12.7H13.7C14 12.7 14.2 12.9 14.2 13.2C14.2 13.5 13.9 13.7 13.7 13.7ZM14.1 6.3H5.7C5.4 6.3 5.2 6.1 5.2 5.8C5.2 5.5 5.4 5.3 5.7 5.3H14.1C14.4 5.3 14.6 5.5 14.6 5.8C14.6 6.1 14.3 6.3 14.1 6.3Z" fill="#469BE5"/>
</svg>
