<svg width="24" height="24" viewBox="0 0 24 24" fill="none" xmlns="http://www.w3.org/2000/svg">
<path d="M4.5 0H19.5C22 0 24 2 24 4.5V19.5C24 22 22 24 19.5 24H4.5C2 24 0 22 0 19.5V4.5C0 2 2 0 4.5 0Z" fill="#E00400"/>
<path d="M13.3999 9.0003H17.0999V5.4003L16.4999 5.3003C15.2999 5.3003 14.7999 5.2003 13.4999 5.3003C11.5999 5.4003 9.9999 5.9003 8.7999 7.2003C7.4999 8.5003 6.8999 10.2003 6.8999 12.2003C6.8999 14.1003 7.4999 15.7003 8.5999 16.9003C9.6999 18.1003 11.2999 18.7003 13.0999 18.7003C14.4999 18.7003 15.2999 18.7003 16.5999 18.7003H17.0999V15.6003V15.0003H13.3999H13.0999C11.9999 15.0003 11.5999 14.6003 11.2999 14.3003C10.9999 14.0003 10.5999 13.4003 10.5999 12.1003C10.5999 10.7003 11.0999 10.0003 11.3999 9.7003C11.6999 9.5003 12.1999 9.1003 13.3999 9.0003Z" fill="white"/>
<path d="M11.7002 11.9004C12.0002 11.9004 12.1002 12.0004 12.3002 12.0004Z" fill="white"/>
</svg>
