<svg width="24" height="24" viewBox="0 0 24 24" fill="none" xmlns="http://www.w3.org/2000/svg">
<path d="M4.5 0H19.5C22 0 24 2 24 4.5V19.5C24 22 22 24 19.5 24H4.5C2 24 0 22 0 19.5V4.5C0 2 2 0 4.5 0Z" fill="#FF4D4A"/>
<path d="M15.5 18.8001C14.9 18.8001 14.3 18.7001 13.8 18.4001L18.5 12.5001C19.1 13.2001 19.4 14.1001 19.5 15.0001C19.5 16.0001 19.1 17.0001 18.3 17.7001C17.5 18.4001 16.5 18.8001 15.5 18.8001ZM11.6 14.9001C11.6 13.6001 12.3 12.3001 13.4 11.6001C14.5 10.9001 15.9 10.8001 17.1 11.4001L12.5 17.3001C11.9 16.7001 11.6 15.8001 11.6 14.9001ZM15.5 9.5001C12.5 9.5001 10.1 12.0001 10.1 15.0001C10.1 18.0001 12.6 20.4001 15.6 20.4001C18.6 20.4001 21 17.9001 21 14.9001C21 11.9001 18.5 9.5001 15.5 9.5001ZM3 16.7001H6.4V15.1001H3V16.7001ZM3 12.9001H7.8V11.3001H3V12.9001ZM3 9.1001H10.1V7.4001H3V9.1001ZM3 5.2001H13.8V3.6001H3V5.2001Z" fill="white"/>
</svg>
