<svg width="16" height="16" viewBox="0 0 16 16" fill="none" xmlns="http://www.w3.org/2000/svg">
<path d="M3 0H13C14.7 0 16 1.3 16 3V13C16 14.7 14.7 16 13 16H3C1.3 16 0 14.7 0 13V3C0 1.3 1.3 0 3 0Z" fill="#FEAD33"/>
<path d="M10.5999 12.1998V7.5998C10.5999 7.1998 10.5999 6.6998 10.5999 6.1998V5.7998H10.4999C10.3999 6.4998 10.2999 6.8998 10.1999 7.1998L8.9999 12.2998H6.6999L5.3999 7.2998C5.3999 7.1998 5.2999 6.6998 5.0999 5.8998H4.9999C5.0999 7.1998 5.0999 7.9998 5.0999 8.3998V12.3998H2.8999V3.7998H6.6999L7.8999 8.3998C7.8999 8.4998 7.9999 8.6998 7.9999 8.9998C7.9999 9.1998 7.9999 9.3998 7.9999 9.5998C7.9999 9.1998 8.0999 8.7998 8.1999 8.2998L9.2999 3.7998H12.9999V12.1998H10.5999Z" fill="white"/>
</svg>
