<svg width="24" height="24" viewBox="0 0 24 24" fill="none" xmlns="http://www.w3.org/2000/svg">
<path d="M3 0H21C22.7 0 24 1.3 24 3V21C24 22.7 22.7 24 21 24H3C1.3 24 0 22.7 0 21V3C0 1.3 1.3 0 3 0Z" fill="#FEAD33"/>
<path d="M15.8999 18.3002V11.4002C15.8999 10.7002 15.8999 10.0002 15.9999 9.3002V8.7002H15.8999C15.6999 9.7002 15.5999 10.4002 15.4999 10.8002L13.5999 18.4002H9.9999L8.0999 10.9002C7.9999 10.6002 7.8999 9.9002 7.6999 8.7002H7.5999C7.6999 10.7002 7.6999 11.9002 7.6999 12.4002V18.3002H4.3999V5.7002H9.9999L11.6999 12.5002C11.6999 12.6002 11.7999 12.9002 11.8999 13.4002C11.9999 13.8002 11.9999 14.2002 11.9999 14.4002H12.0999C12.1999 13.9002 12.2999 13.2002 12.3999 12.5002L13.9999 5.7002H19.5999V18.3002H15.8999Z" fill="white"/>
</svg>
