<svg width="16" height="16" viewBox="0 0 16 16" fill="none" xmlns="http://www.w3.org/2000/svg">
<path d="M3 0H13C14.7 0 16 1.3 16 3V13C16 14.7 14.7 16 13 16H3C1.3 16 0 14.7 0 13V3C0 1.3 1.3 0 3 0Z" fill="#FF4D4A"/>
<path d="M9.99941 6.6001C7.99941 6.6001 6.39941 8.3001 6.39941 10.2001C6.39941 12.2001 7.99941 13.8001 9.99941 13.8001C11.9994 13.8001 13.5994 12.2001 13.5994 10.2001C13.5994 8.3001 11.9994 6.6001 9.99941 6.6001ZM7.39941 10.3001C7.39941 9.4001 7.89941 8.6001 8.59941 8.1001C9.29941 7.6001 10.2994 7.6001 11.0994 8.0001L7.99941 11.9001C7.59941 11.4001 7.39941 10.9001 7.39941 10.3001ZM11.7994 12.1001C11.2994 12.6001 10.6994 12.8001 9.99941 12.8001C9.59941 12.8001 9.19941 12.7001 8.89941 12.5001L11.9994 8.6001C12.3994 9.1001 12.5994 9.6001 12.5994 10.3001C12.5994 10.9001 12.2994 11.6001 11.7994 12.1001Z" fill="white"/>
<path d="M4.4998 9.7002H2.2998V10.8002H4.4998V9.7002Z" fill="white"/>
<path d="M5.4998 7.2002H2.2998V8.3002H5.4998V7.2002Z" fill="white"/>
<path d="M6.9998 4.7002H2.2998V5.8002H6.9998V4.7002Z" fill="white"/>
<path d="M9.4998 2.1001H2.2998V3.2001H9.4998V2.1001Z" fill="white"/>
</svg>
