<svg width="16" height="16" viewBox="0 0 16 16" fill="none" xmlns="http://www.w3.org/2000/svg">
<path d="M3 0H13C14.7 0 16 1.3 16 3V13C16 14.7 14.7 16 13 16H3C1.3 16 0 14.7 0 13V3C0 1.3 1.3 0 3 0Z" fill="#E00400"/>
<path d="M9 5.89991H11.5V3.49991L11.1 3.39991C10.3 3.39991 9.9 3.29991 9 3.39991C7.7 3.49991 6.6 3.89991 5.8 4.69991C4.9 5.59991 4.5 6.69991 4.5 8.09991C4.5 9.39991 4.9 10.4999 5.7 11.2999C6.5 12.0999 7.5 12.5999 8.8 12.5999C9.7 12.5999 10.3 12.5999 11.2 12.5999H11.5V10.4999V10.0999H9H8.7C8 10.0999 7.7 9.89991 7.5 9.59991C7.3 9.39991 7 8.99991 7 8.19991C7 7.19991 7.3 6.79991 7.6 6.49991C7.8 6.29991 8.2 5.99991 9 5.89991Z" fill="white"/>
</svg>
