<svg width="20" height="20" viewBox="0 0 20 20" fill="none" xmlns="http://www.w3.org/2000/svg">
<path d="M19.1004 1.80011L19.0004 1.50011L18.8004 1.30011C18.7004 1.20011 18.5004 1.10011 18.4004 1.20011L11.4004 6.10011L11.3004 6.20011L11.2004 6.70011C11.1004 6.90011 11.2004 7.10011 11.4004 7.10011H12.0004H12.1004L19.1004 2.20011C19.2004 2.10011 19.2004 1.90011 19.1004 1.80011Z" fill="#999999"/>
<path d="M12 7.6L11.5 7.7H11.4C11.1 7.7 10.9 7.6 10.7 7.4C10.5 7.1 10.5 6.8 10.6 6.5L10.9 6C10.9 5.9 11 5.8 11.1 5.7L17 1.7C16.7 1.3 16.3 1 15.8 1H3.4C2.6 1 2 1.6 2 2.4V17.7C2 18.4 2.6 19 3.4 19H15.9C16.6 19 17.2 18.4 17.2 17.7V4.2L12.4 7.5C12.3 7.6 12.1 7.6 12 7.6ZM15.3 13.5V13.8C15.3 14.1 15.1 14.3 14.8 14.3H4.4C4.1 14.3 3.9 14.1 3.9 13.8V13.5C3.9 13.2 4.1 13 4.4 13H14.8C15.1 13 15.3 13.3 15.3 13.5ZM12.7 9.2C12.7 9.5 12.5 9.7 12.2 9.7H4.4C4.1 9.7 3.9 9.5 3.9 9.2C3.9 8.9 4.1 8.7 4.4 8.7H12.2C12.5 8.7 12.7 8.9 12.7 9.2Z" fill="#999999"/>
</svg>
