<svg width="20" height="20" viewBox="0 0 20 20" fill="none" xmlns="http://www.w3.org/2000/svg">
<path d="M19.5495 11.0801H17.1171C17.027 10.0901 16.6667 9.10015 16.1261 8.20015C17.027 7.48015 17.6577 6.67015 18.1081 5.68015C18.1982 5.41015 18.1081 5.05015 17.8378 4.78015C17.5676 4.69015 17.2072 4.78015 16.9369 5.05015C16.5766 5.77015 16.036 6.58015 15.3153 7.03015C14.955 6.49015 14.4144 6.13015 13.7838 5.77015C13.7838 5.77015 13.7838 5.68015 13.8739 5.68015C13.8739 5.41015 13.964 5.14015 13.964 4.96015C13.964 2.80015 12.1622 1.09015 10.0901 1.09015C8.10811 1.00015 6.21622 2.80015 6.21622 4.87015C6.21622 5.14015 6.21622 5.41015 6.30631 5.59015C6.30631 5.68015 6.30631 5.68015 6.3964 5.68015C5.67568 6.13015 5.13513 6.58015 4.77477 7.21015C4.14414 6.58015 3.51351 5.95015 3.15315 5.14015C3.06306 4.78015 2.61261 4.60015 2.25225 4.78015C1.98198 4.87015 1.89189 5.32015 1.98198 5.68015C2.52252 6.58015 3.15315 7.48015 3.96396 8.20015C3.42342 8.92015 3.06306 10.0001 2.97297 11.0801H0.630631C0.27027 11.0801 0 11.3501 0 11.7101C0 12.0701 0.27027 12.3402 0.630631 12.3402H3.06306C3.15315 13.2402 3.33333 14.1401 3.69369 14.8601C2.7027 15.5801 1.8018 16.6602 1.26126 17.7402C1.17117 18.0102 1.26126 18.3702 1.53153 18.6402C1.62162 18.6402 1.62162 18.7302 1.8018 18.7302C2.07207 18.7302 2.34234 18.6402 2.34234 18.3702C2.88288 17.4702 3.51351 16.7502 4.23423 16.1202C5.4054 17.8302 7.56757 19.0002 9.90991 19.0002C12.3423 19.0002 14.3243 17.8302 15.6757 16.1202C16.3964 16.7502 17.2072 17.4702 17.5676 18.3702C17.6577 18.6402 17.9279 18.7302 18.1982 18.7302C18.2883 18.7302 18.2883 18.7302 18.4685 18.6402C18.7387 18.5502 19.009 18.1002 18.7387 17.7402C18.1982 16.5702 17.3874 15.5801 16.3063 14.8601C16.6667 14.1401 16.9369 13.2402 16.9369 12.3402H19.3694C19.7297 12.3402 20 12.0701 20 11.7101C20 11.3501 19.9099 11.0801 19.5495 11.0801ZM7.47748 4.87015C7.47748 3.34015 8.64865 2.26015 10.0901 2.26015C11.6216 2.26015 12.7027 3.43015 12.7027 4.87015V5.14015C11.8018 4.87015 10.9009 4.60015 10.0901 4.60015C9.27928 4.60015 8.28829 4.87015 7.47748 5.14015V4.87015ZM7.11712 12.4301H11.5315C11.7117 12.4301 11.8919 12.6101 11.8919 12.8801C11.8919 13.1501 11.7117 13.3301 11.5315 13.3301H7.11712C6.93694 13.3301 6.75676 13.1501 6.75676 12.8801C6.75676 12.6101 6.93694 12.4301 7.11712 12.4301ZM6.84685 10.7202C6.84685 10.4502 7.02703 10.2702 7.20721 10.2702H10.7207C10.9009 10.2702 11.0811 10.4502 11.0811 10.7202C11.0811 10.9902 10.9009 11.1702 10.7207 11.1702H7.11712C6.93694 11.1702 6.84685 10.9902 6.84685 10.7202ZM12.8829 15.3101H7.20721C7.02703 15.3101 6.84685 15.1301 6.84685 14.8601C6.84685 14.5901 7.02703 14.5002 7.20721 14.5002H12.973C13.1532 14.5002 13.3333 14.6802 13.3333 14.9502C13.3333 15.2202 13.0631 15.3101 12.8829 15.3101ZM12.8829 9.10015H7.11712C6.93694 9.10015 6.84685 8.92015 6.84685 8.65015C6.84685 8.38015 6.93694 8.20015 7.11712 8.20015H12.8829C13.0631 8.20015 13.2432 8.38015 13.2432 8.65015C13.2432 8.92015 13.0631 9.10015 12.8829 9.10015Z" fill="#999999"/>
</svg>
