<svg width="20" height="20" viewBox="0 0 20 20" fill="none" xmlns="http://www.w3.org/2000/svg">
<path d="M19.53 11.1378H17.1C17.01 10.143 16.65 9.14824 16.11 8.24388C17.01 7.52039 17.64 6.70647 18.09 5.71167C18.18 5.44037 18.09 5.07862 17.82 4.80732C17.55 4.71688 17.19 4.80732 16.92 5.07862C16.56 5.80211 16.02 6.61603 15.3 7.06821C14.94 6.5256 14.4 6.16385 13.77 5.80211C13.77 5.80211 13.77 5.71167 13.86 5.71167C13.86 5.44037 13.95 5.16906 13.95 4.98819C13.95 2.81773 12.15 1.09944 10.08 1.09944C8.1 1.00901 6.21 2.81773 6.21 4.89775C6.21 5.16906 6.21 5.44037 6.3 5.62124C6.3 5.71168 6.3 5.71167 6.39 5.71167C5.67 6.16385 5.13 6.61603 4.77 7.24909C4.14 6.61603 3.51 5.98298 3.15 5.16906C3.06 4.80732 2.61 4.62644 2.25 4.80732C1.98 4.89775 1.89 5.34993 1.98 5.71167C2.52 6.61603 3.15 7.52039 3.96 8.24388C3.42 8.96737 3.06 10.0526 2.97 11.1378H0.63C0.27 11.1378 0 11.4091 0 11.7709C0 12.1326 0.27 12.4039 0.63 12.4039H3.06C3.15 13.3083 3.33 14.2127 3.69 14.9361C2.7 15.6596 1.8 16.7449 1.26 17.8301C1.17 18.1014 1.26 18.4631 1.53 18.7344C1.62 18.7344 1.62 18.8249 1.8 18.8249C2.07 18.8249 2.34 18.7344 2.34 18.4631C2.88 17.5588 3.51 16.8353 4.23 16.2022C5.4 17.9205 7.56 19.0962 9.9 19.0962C12.33 19.0962 14.31 17.9205 15.66 16.2022C16.38 16.8353 17.19 17.5588 17.55 18.4631C17.64 18.7344 17.91 18.8249 18.18 18.8249C18.27 18.8249 18.27 18.8249 18.45 18.7344C18.72 18.644 18.99 18.1918 18.72 17.8301C18.18 16.6544 17.37 15.6596 16.29 14.9361C16.65 14.2127 16.92 13.3083 16.92 12.4039H19.35C19.71 12.4039 19.98 12.1326 19.98 11.7709C19.98 11.4091 19.89 11.1378 19.53 11.1378ZM7.47 4.89775C7.47 3.36034 8.64 2.27511 10.08 2.27511C11.61 2.27511 12.69 3.45078 12.69 4.89775V5.16906C11.79 4.89775 10.89 4.62644 10.08 4.62644C9.27 4.62644 8.28 4.89775 7.47 5.16906V4.89775ZM13.59 10.2335L11.52 12.8561C11.52 12.9465 11.43 12.9465 11.34 12.9465C11.25 12.9465 11.16 12.9465 11.16 12.8561L10.8 12.5848L8.91 11.0474L7.38 13.037C7.29 13.1274 7.11 13.2179 7.02 13.1274L6.57 12.7657C6.48 12.7657 6.48 12.6752 6.48 12.5848C6.48 12.4944 6.48 12.4039 6.57 12.4039L8.64 9.78129C8.73 9.69086 8.73 9.69086 8.82 9.69086H8.91C9 9.69086 9 9.69086 9 9.78129L9.36 10.0526L11.34 11.59L12.87 9.60042C12.87 9.50998 12.96 9.50998 13.05 9.50998C13.14 9.50998 13.23 9.50998 13.23 9.60042L13.68 9.96216C13.77 9.96216 13.77 10.0526 13.77 10.143C13.68 10.0526 13.59 10.143 13.59 10.2335Z" fill="#999999"/>
</svg>
